<?xml version="1.0" encoding="UTF-8"?>
<!DOCTYPE svg PUBLIC "-//W3C//DTD SVG 1.1//EN" "http://www.w3.org/Graphics/SVG/1.1/DTD/svg11.dtd">
<svg version="1.1" xmlns="http://www.w3.org/2000/svg" xmlns:xlink="http://www.w3.org/1999/xlink" x="0" y="0" width="500" height="500" viewBox="0, 0, 500, 500">
  <g id="Layer_1">
    <path d="M276.5,312.5 C203.598,312.5 144.5,242.656 144.5,156.5" fill-opacity="0" stroke="#777777" stroke-width="6"/>
    <g>
      <path d="M41.333,50.5 L249.667,50.5 C261.173,50.5 270.5,61.693 270.5,75.5 L270.5,175.5 C270.5,189.307 261.173,200.5 249.667,200.5 L41.333,200.5 C29.827,200.5 20.5,189.307 20.5,175.5 L20.5,75.5 C20.5,61.693 29.827,50.5 41.333,50.5 z" fill="#20A0D3"/>
      <path d="M41.333,50.5 L249.667,50.5 C261.173,50.5 270.5,61.693 270.5,75.5 L270.5,175.5 C270.5,189.307 261.173,200.5 249.667,200.5 L41.333,200.5 C29.827,200.5 20.5,189.307 20.5,175.5 L20.5,75.5 C20.5,61.693 29.827,50.5 41.333,50.5 z" fill-opacity="0" stroke="#777777" stroke-width="6"/>
    </g>
    <path d="M36.125,50.5 L254.875,50.5 C263.504,50.5 270.5,60.094 270.5,71.929 L270.5,179.071 C270.5,190.906 263.504,200.5 254.875,200.5 L36.125,200.5 C27.496,200.5 20.5,190.906 20.5,179.071 L20.5,71.929 C20.5,60.094 27.496,50.5 36.125,50.5 z" fill-opacity="0" stroke="#D8D8D8" stroke-width="6" stroke-dasharray="18,12"/>
    <g>
      <path d="M259.731,250.5 L471.269,250.5 C481.89,250.5 490.5,261.693 490.5,275.5 L490.5,375.5 C490.5,389.307 481.89,400.5 471.269,400.5 L259.731,400.5 C249.11,400.5 240.5,389.307 240.5,375.5 L240.5,275.5 C240.5,261.693 249.11,250.5 259.731,250.5 z" fill="#E0E0E0"/>
      <path d="M259.731,250.5 L471.269,250.5 C481.89,250.5 490.5,261.693 490.5,275.5 L490.5,375.5 C490.5,389.307 481.89,400.5 471.269,400.5 L259.731,400.5 C249.11,400.5 240.5,389.307 240.5,375.5 L240.5,275.5 C240.5,261.693 249.11,250.5 259.731,250.5 z" fill-opacity="0" stroke="#777777" stroke-width="6"/>
    </g>
    <path d="M132.5,168.5 L132.5,168.5" fill-opacity="0" stroke="#777777" stroke-width="2"/>
    <path d="M144.5,300.5 L144.5,300.5" fill-opacity="0" stroke="#777777" stroke-width="2"/>
    <path d="M396.5,184.5 L396.5,184.5" fill-opacity="0" stroke="#777777" stroke-width="2"/>
    <path d="M204.5,288.5 L204.5,288.5" fill-opacity="0" stroke="#777777" stroke-width="2"/>
    <g>
      <path d="M360.5,385.5 C327.363,385.5 300.5,358.637 300.5,325.5 C300.5,292.363 327.363,265.5 360.5,265.5 C393.637,265.5 420.5,292.363 420.5,325.5 C420.5,358.637 393.637,385.5 360.5,385.5 z" fill="#1F9FD1" fill-opacity="0.825"/>
      <path d="M360.5,385.5 C327.363,385.5 300.5,358.637 300.5,325.5 C300.5,292.363 327.363,265.5 360.5,265.5 C393.637,265.5 420.5,292.363 420.5,325.5 C420.5,358.637 393.637,385.5 360.5,385.5 z" fill-opacity="0" stroke="#000000" stroke-width="6" stroke-opacity="0.439"/>
    </g>
    <path d="M360.5,295.5 L360.5,355.5" fill-opacity="0" stroke="#000000" stroke-width="20" stroke-linecap="round"/>
    <path d="M330.5,325.5 L390.5,325.5" fill-opacity="0" stroke="#000000" stroke-width="20" stroke-linecap="round"/>
  </g>
</svg>
